<svg xmlns="http://www.w3.org/2000/svg" width="181.956" height="193.374" viewBox="0 0 181.956 193.374">
  <g id="Group_1478" data-name="Group 1478" transform="translate(-1662.54 -73)">
    <path id="Union_13" data-name="Union 13" d="M.068,169.65l15.753-45.573V23.328A23.328,23.328,0,0,1,39.148,0H155.014a23.328,23.328,0,0,1,23.328,23.328V139.287a23.328,23.328,0,0,1-23.328,23.328h-96.6L2.426,171.658a2.373,2.373,0,0,1-.378.03C.778,171.689-.283,170.667.068,169.65Z" transform="translate(1844.496 244.689) rotate(180)"/>
    <path id="Union_13_-_Outline" data-name="Union 13 - Outline" d="M4.094,168.061l54.057-8.732h96.862a20.065,20.065,0,0,0,20.042-20.042V23.328A20.065,20.065,0,0,0,155.013,3.286H39.148A20.065,20.065,0,0,0,19.106,23.328v101.3L4.094,168.061m-2.046,3.628c-1.27,0-2.331-1.021-1.98-2.039L15.82,124.077V23.328A23.328,23.328,0,0,1,39.148,0H155.013a23.328,23.328,0,0,1,23.328,23.328V139.287a23.328,23.328,0,0,1-23.328,23.327h-96.6L2.426,171.658A2.37,2.37,0,0,1,2.048,171.688Z" transform="translate(1844.496 244.689) rotate(180)" fill="#fff"/>
    <path id="Union_14" data-name="Union 14" d="M.068,169.649,15.82,124.076V23.328A23.328,23.328,0,0,1,39.148,0H155.013a23.327,23.327,0,0,1,23.327,23.328V139.286a23.327,23.327,0,0,1-23.327,23.328h-96.6l-55.99,9.045a2.374,2.374,0,0,1-.378.03C.777,171.688-.284,170.667.068,169.649Z" transform="translate(1662.541 94.685)"/>
    <path id="Union_14_-_Outline" data-name="Union 14 - Outline" d="M4.093,168.06l54.056-8.732h96.864a20.065,20.065,0,0,0,20.042-20.042V23.328A20.065,20.065,0,0,0,155.013,3.286H39.148A20.065,20.065,0,0,0,19.105,23.328v101.3L4.093,168.06m-2.046,3.628c-1.27,0-2.331-1.021-1.979-2.039L15.82,124.077V23.328A23.328,23.328,0,0,1,39.148,0H155.013a23.328,23.328,0,0,1,23.328,23.328V139.286a23.328,23.328,0,0,1-23.328,23.328h-96.6L2.425,171.658A2.37,2.37,0,0,1,2.047,171.688Z" transform="translate(1662.541 94.685)" fill="#f84e1a"/>
    <text id="Biz_Buz" data-name="Biz
Buz" transform="translate(1693.134 170.462)" fill="#fff" font-size="65" font-family="LibreBaskerville-Bold, Libre Baskerville" font-weight="700"><tspan x="0" y="0">Biz</tspan><tspan x="0" y="55">Buz</tspan></text>
  </g>
</svg>
