<svg xmlns="http://www.w3.org/2000/svg" xmlns:xlink="http://www.w3.org/1999/xlink" width="613.795" height="648.548" viewBox="0 0 613.795 648.548">
  <defs>
    <filter id="Path_5252" x="10.999" y="0" width="602.796" height="582.549" filterUnits="userSpaceOnUse">
      <feOffset dy="15" input="SourceAlpha"/>
      <feGaussianBlur stdDeviation="10" result="blur"/>
      <feFlood flood-opacity="0.161"/>
      <feComposite operator="in" in2="blur"/>
      <feComposite in="SourceGraphic"/>
    </filter>
    <filter id="Path_5253" x="0" y="66" width="602.797" height="582.548" filterUnits="userSpaceOnUse">
      <feOffset dy="15" input="SourceAlpha"/>
      <feGaussianBlur stdDeviation="10" result="blur-2"/>
      <feFlood flood-opacity="0.161"/>
      <feComposite operator="in" in2="blur-2"/>
      <feComposite in="SourceGraphic"/>
    </filter>
  </defs>
  <g id="Group_1734" data-name="Group 1734" transform="translate(-6126.724 -87.875)">
    <g transform="matrix(1, 0, 0, 1, 6126.72, 87.88)" filter="url(#Path_5252)">
      <path id="Path_5252-2" data-name="Path 5252" d="M.208,516.344l47.942-138.7V71a71,71,0,0,1,71-71H471.8a71,71,0,0,1,71,71V423.931a71,71,0,0,1-71,71H177.791L7.384,522.456a7.214,7.214,0,0,1-1.151.092C2.367,522.549-.863,519.44.208,516.344Z" transform="translate(583.8 537.55) rotate(180)" fill="#fff"/>
    </g>
    <path id="Path_707_-_Outline" data-name="Path 707 - Outline" d="M12.46,511.507,176.989,484.93H471.8a61.069,61.069,0,0,0,61-61V71a61.069,61.069,0,0,0-61-61H119.15a61.069,61.069,0,0,0-61,61V379.319L12.46,511.507M6.233,522.549c-3.866,0-7.1-3.108-6.025-6.205l47.942-138.7V71a71,71,0,0,1,71-71H471.8a71,71,0,0,1,71,71v352.93a71,71,0,0,1-71,71H177.791L7.384,522.456A7.207,7.207,0,0,1,6.233,522.549Z" transform="translate(6710.52 625.424) rotate(180)"/>
    <g transform="matrix(1, 0, 0, 1, 6126.72, 87.88)" filter="url(#Path_5253)">
      <path id="Path_5253-2" data-name="Path 5253" d="M.207,516.343l47.943-138.7V71a71,71,0,0,1,71-71H471.8a71,71,0,0,1,71,71V423.93a71,71,0,0,1-71,71H177.785L7.383,522.455a7.211,7.211,0,0,1-1.151.093C2.366,522.548-.864,519.439.207,516.343Z" transform="translate(30 81)" fill="#f84e1a"/>
    </g>
    <path id="Path_708_-_Outline" data-name="Path 708 - Outline" d="M12.459,511.506,176.983,484.93H471.8a61.069,61.069,0,0,0,61-61V71a61.069,61.069,0,0,0-61-61H119.15a61.069,61.069,0,0,0-61,61V379.318L12.459,511.506M6.231,522.548c-3.866,0-7.095-3.109-6.024-6.205l47.943-138.7V71a71,71,0,0,1,71-71H471.8a71,71,0,0,1,71,71V423.93a71,71,0,0,1-71,71H177.785L7.383,522.455A7.21,7.21,0,0,1,6.231,522.548Z" transform="translate(6156.725 168.875)" fill="#f84e1a"/>
    <text id="Biz_Buz" data-name="Biz
Buz" transform="translate(6249.838 404.762)" fill="#fcf621" font-size="203" font-family="LibreBaskerville-Bold, Libre Baskerville" font-weight="700"><tspan x="0" y="0">Biz</tspan><tspan x="0" y="172">Buz</tspan></text>
  </g>
</svg>
